<?xml version="1.0" standalone="no"?>
<!DOCTYPE svg PUBLIC "-//W3C//DTD SVG 20010904//EN"
 "http://www.w3.org/TR/2001/REC-SVG-20010904/DTD/svg10.dtd">
<svg version="1.0" xmlns="http://www.w3.org/2000/svg"
 width="260.000000pt" height="260.000000pt" viewBox="0 0 260.000000 260.000000"
 preserveAspectRatio="xMidYMid meet">
<metadata>
Created by potrace 1.11, written by Peter Selinger 2001-2013
</metadata>
<g transform="translate(0.000000,260.000000) scale(0.100000,-0.100000)"
fill="#000000" stroke="none">
<path d="M0 1300 l0 -1300 1300 0 1300 0 0 1300 0 1300 -1300 0 -1300 0 0
-1300z m1762 439 c148 -32 263 -144 284 -279 l7 -41 -88 3 -87 3 -13 39 c-43
124 -209 176 -318 100 -129 -90 -154 -366 -46 -497 44 -54 96 -77 169 -77 97
0 172 51 200 135 l12 35 84 0 c98 0 98 -1 63 -97 -56 -148 -207 -233 -395
-221 -199 13 -327 126 -370 326 -25 121 -12 258 35 363 72 161 269 249 463
208z m-645 -351 c-3 -378 -6 -394 -64 -459 -56 -62 -103 -82 -206 -87 -138 -7
-226 29 -281 116 -18 29 -46 118 -46 147 0 3 41 5 90 5 84 0 90 -1 90 -20 0
-74 105 -124 179 -85 58 29 61 51 61 404 l0 321 90 0 91 0 -4 -342z"/>
</g>
</svg>
