<svg width="1440" height="820" viewBox="0 0 1440 820" fill="none" xmlns="http://www.w3.org/2000/svg">
<g filter="url(#filter0_b)">
<rect x="6.10352e-05" width="1440" height="820" fill="url(#paint0_linear)"/>
</g>
<line x1="120.5" y1="-2.18557e-08" x2="120.5" y2="820" stroke="white" stroke-opacity="0.05" stroke-dasharray="8 8"/>
<line x1="1320.5" y1="-2.18557e-08" x2="1320.5" y2="820" stroke="white" stroke-opacity="0.05" stroke-dasharray="8 8"/>
<line x1="1200.5" y1="-2.18557e-08" x2="1200.5" y2="820" stroke="white" stroke-opacity="0.05" stroke-dasharray="8 8"/>
<line x1="1080.5" y1="-2.18557e-08" x2="1080.5" y2="820" stroke="white" stroke-opacity="0.05" stroke-dasharray="8 8"/>
<line x1="960.5" y1="-2.18557e-08" x2="960.5" y2="820" stroke="white" stroke-opacity="0.05" stroke-dasharray="8 8"/>
<line x1="840.5" y1="-2.18557e-08" x2="840.5" y2="820" stroke="white" stroke-opacity="0.05" stroke-dasharray="8 8"/>
<line x1="720.5" y1="-2.18557e-08" x2="720.5" y2="820" stroke="white" stroke-opacity="0.05" stroke-dasharray="8 8"/>
<line x1="600.5" y1="-2.18557e-08" x2="600.5" y2="820" stroke="white" stroke-opacity="0.05" stroke-dasharray="8 8"/>
<line x1="480.5" y1="-2.18557e-08" x2="480.5" y2="820" stroke="white" stroke-opacity="0.05" stroke-dasharray="8 8"/>
<line x1="360.5" y1="-2.18557e-08" x2="360.5" y2="820" stroke="white" stroke-opacity="0.05" stroke-dasharray="8 8"/>
<line x1="240.5" y1="-2.18557e-08" x2="240.5" y2="820" stroke="white" stroke-opacity="0.05" stroke-dasharray="8 8"/>
<defs>
<filter id="filter0_b" x="-9.99994" y="-10" width="1460" height="840" filterUnits="userSpaceOnUse" color-interpolation-filters="sRGB">
<feFlood flood-opacity="0" result="BackgroundImageFix"/>
<feGaussianBlur in="BackgroundImage" stdDeviation="5"/>
<feComposite in2="SourceAlpha" operator="in" result="effect1_backgroundBlur"/>
<feBlend mode="normal" in="SourceGraphic" in2="effect1_backgroundBlur" result="shape"/>
</filter>
<linearGradient id="paint0_linear" x1="1440" y1="6.12483e-05" x2="736.344" y2="547.876" gradientUnits="userSpaceOnUse">
<stop stop-color="#00666C"/>
<stop offset="0.416667" stop-color="#012749"/>
<stop offset="1"/>
</linearGradient>
</defs>
</svg>
